<svg width="15" height="14" viewBox="0 0 15 14" fill="none" xmlns="http://www.w3.org/2000/svg">
<g id="chart-simple 1" clip-path="url(#clip0_1_3019)">
<path id="Vector" d="M7.33325 14C6.37075 14 5.58325 13.2125 5.58325 12.25V1.75C5.58325 0.7875 6.37075 0 7.33325 0C8.29575 0 9.08325 0.7875 9.08325 1.75V12.25C9.08325 13.2125 8.29575 14 7.33325 14ZM12.5833 14C11.6208 14 10.8333 13.2125 10.8333 12.25V5.25C10.8333 4.2875 11.6208 3.5 12.5833 3.5C13.5458 3.5 14.3333 4.2875 14.3333 5.25V12.25C14.3333 13.2125 13.5458 14 12.5833 14ZM2.08325 14C1.12075 14 0.333252 13.2125 0.333252 12.25V8.75C0.333252 7.7875 1.12075 7 2.08325 7C3.04575 7 3.83325 7.7875 3.83325 8.75V12.25C3.83325 13.2125 3.04575 14 2.08325 14Z" fill="white"/>
</g>
<defs>
<clipPath id="clip0_1_3019">
<rect width="14" height="14" fill="white" transform="translate(0.333252)"/>
</clipPath>
</defs>
</svg>
