<svg width="17" height="16" viewBox="0 0 17 16" fill="none" xmlns="http://www.w3.org/2000/svg">
<g id="Frame">
<g id="Clip path group">
<mask id="mask0_496_398" style="mask-type:luminance" maskUnits="userSpaceOnUse" x="0" y="0" width="17" height="16">
<g id="clip0_684_298">
<path id="Vector" d="M16.3333 0H0.333313V16H16.3333V0Z" fill="white"/>
</g>
</mask>
<g mask="url(#mask0_496_398)">
<g id="Group">
<path id="Vector_2" d="M9.09193 7.55922H7.70245V6.19922H9.09193C9.48725 6.19922 9.80772 6.50367 9.80772 6.87922C9.80772 7.25478 9.48725 7.55922 9.09193 7.55922Z" fill="white"/>
<path id="Vector_3" fill-rule="evenodd" clip-rule="evenodd" d="M5.62836 1.91634C5.54427 1.71969 5.34547 1.59986 5.13514 1.59961C5.09186 1.5995 5.04786 1.60445 5.00396 1.61493L2.87063 2.12401C2.77685 2.14639 2.69121 2.19268 2.62286 2.25792L0.489527 4.29426C0.297364 4.47769 0.28042 4.7697 0.450187 4.97226L2.58352 7.51769C2.75634 7.72389 3.06564 7.76973 3.29582 7.62325L4.06664 7.13273V13.8905C4.06664 14.1716 4.30542 14.3996 4.59998 14.3996H12.0666C12.3612 14.3996 12.6 14.1716 12.6 13.8905V7.13273L13.3708 7.62325C13.601 7.76973 13.9103 7.72389 14.0831 7.51769L16.2164 4.97226C16.3862 4.7697 16.3693 4.47769 16.1771 4.29426L14.0438 2.25792C13.9754 2.19268 13.8898 2.14639 13.796 2.12401L11.6823 1.61963C11.6328 1.60593 11.5825 1.59944 11.5329 1.59961C11.3126 1.59962 11.1106 1.73084 11.0329 1.93255L11.0272 1.94341C11.0133 1.9695 10.9887 2.01229 10.9511 2.06639C10.8761 2.17461 10.7502 2.32683 10.556 2.48173C10.176 2.78468 9.49791 3.127 8.33462 3.127C7.17133 3.127 6.49329 2.78468 6.11328 2.48173C5.91899 2.32683 5.79317 2.17461 5.71809 2.06639C5.68056 2.01229 5.65593 1.9695 5.64201 1.94341C5.63507 1.93039 5.63016 1.92017 5.62836 1.91634ZM6.43859 4.9996V10.3996H7.70174V8.7596H9.09122C10.1842 8.7596 11.0702 7.9179 11.0702 6.8796C11.0702 5.84131 10.1842 4.9996 9.09122 4.9996H6.43859Z" fill="white"/>
</g>
</g>
</g>
</g>
</svg>
