<svg width="17" height="16" viewBox="0 0 17 16" fill="none" xmlns="http://www.w3.org/2000/svg">
<g id="Frame">
<path id="Vector" d="M7.66594 2C6.95584 2 6.38019 2.57565 6.38019 3.28575V4.14292C6.38019 4.85303 6.95584 5.42868 7.66594 5.42868H12.8089C13.519 5.42868 14.0947 4.85303 14.0947 4.14292V3.28575C14.0947 2.57565 13.519 2 12.8089 2H7.66594Z" fill="white"/>
<path id="Vector_2" d="M3.80597 7.57092C3.80597 6.86082 4.38162 6.28516 5.09172 6.28516H10.2347C10.9448 6.28516 11.5205 6.86082 11.5205 7.57092V8.42809C11.5205 9.13819 10.9448 9.71384 10.2347 9.71384H5.09172C4.38162 9.71384 3.80597 9.13819 3.80597 8.42809V7.57092Z" fill="white"/>
<path id="Vector_3" d="M1.23566 11.857C1.23566 11.1469 1.81131 10.5713 2.52141 10.5713H7.66442C8.37453 10.5713 8.95018 11.1469 8.95018 11.857V12.7142C8.95018 13.4243 8.37453 14 7.66442 14H2.52141C1.81131 14 1.23566 13.4243 1.23566 12.7142V11.857Z" fill="white"/>
</g>
</svg>
