<svg width="16" height="16" viewBox="0 0 16 16" fill="none" xmlns="http://www.w3.org/2000/svg">
<g id="Sport Icons">
<path id="Vector" d="M8.94333 12.5628C9.11151 12.5628 9.26841 12.6486 9.35912 12.7898C9.56505 13.11 9.72097 13.3326 9.82786 13.4566C9.93475 13.5807 10.0362 13.6876 10.1274 13.7797L10.2554 13.9072C10.4339 14.0832 10.5491 14.1955 10.5491 14.2857C10.5491 14.653 9.93181 14.8462 8.6967 14.8648C8.60305 14.8648 8.5295 14.7913 8.5295 14.7001V12.7275C8.5295 12.6363 8.60305 12.5628 8.69425 12.5628H8.94333ZM7.30568 12.5628C7.39688 12.5628 7.47042 12.6363 7.47042 12.7275V14.7001C7.47042 14.7913 7.39688 14.8648 7.30568 14.8648H7.30323C6.06812 14.8462 5.45081 14.6535 5.45081 14.2857C5.45081 14.1955 5.56555 14.0837 5.74451 13.9072L5.87249 13.7797C5.96319 13.6876 6.06469 13.5812 6.17207 13.4566C6.27945 13.3321 6.43537 13.11 6.64081 12.7898C6.73152 12.6481 6.88842 12.5628 7.0566 12.5628H7.30568ZM14.2181 11.3963C14.0416 11.9376 12.9041 13.642 11.7573 13.5606C10.6104 13.4792 10.1274 12.5657 10.3687 12.274C10.6099 11.9822 11.871 12.196 12.9654 11.5003C14.0598 10.8045 14.3951 10.8545 14.2186 11.3958L14.2181 11.3963ZM1.78179 11.3963C1.60527 10.855 1.94065 10.8055 3.03503 11.5008C4.12941 12.196 5.39051 11.9822 5.63174 12.2745C5.87298 12.5662 5.39051 13.4802 4.24317 13.5611C3.09583 13.642 1.95879 11.9381 1.78228 11.3968L1.78179 11.3963ZM8.90558 1.13941L9.12818 1.17423C11.6146 1.58462 12.9546 2.52259 13.1488 3.98864C13.4626 6.35833 11.0483 7.97098 10.2167 8.98054C9.38511 9.9901 9.25664 11.7332 9.21546 11.7729C9.17427 11.8126 8.58001 11.8366 8.5295 11.7729C8.5148 11.7543 8.50646 11.06 8.5045 9.69002V8.40196C8.50597 6.7192 8.51381 4.40638 8.52754 1.464C8.52754 1.44831 8.52901 1.43262 8.53098 1.41693C8.55794 1.23699 8.72563 1.11245 8.90558 1.13941ZM7.46846 1.41742C7.47091 1.43311 7.47189 1.4488 7.47189 1.46449C7.48562 4.40736 7.49347 6.71969 7.49494 8.40245V9.69051C7.49298 11.0605 7.48464 11.7547 7.46993 11.7734C7.41943 11.8371 6.82566 11.8131 6.78398 11.7734C6.74231 11.7337 6.61433 9.99059 5.78276 8.98103C4.95118 7.97147 2.53638 6.35882 2.85067 3.98913C3.04484 2.52308 4.38536 1.58462 6.87126 1.17472L7.09386 1.1399C7.27381 1.11294 7.44149 1.23748 7.46797 1.41742H7.46846ZM14.5658 5.2713C14.5658 5.30317 15.5121 8.76725 14.0357 9.70375C13.2213 10.2205 12.4197 10.325 11.6729 10.7491C11.2949 10.9644 10.8531 11.335 10.6648 11.4321C10.4765 11.5292 10.1495 11.5449 10.1422 11.4321C10.1343 11.3193 10.1343 10.4167 10.8536 9.46791C11.5729 8.51915 12.1931 8.5064 13.1772 7.19971C14.1618 5.89302 14.0931 5.30317 14.0931 5.2713C14.0931 5.23943 14.5658 5.23943 14.5658 5.2713ZM1.43415 5.2713C1.43415 5.23943 1.90682 5.23943 1.90682 5.2713C1.90682 5.30317 1.83866 5.89351 2.82272 7.19971C3.80728 8.5064 4.42753 8.51915 5.14633 9.46791C5.86513 10.4167 5.86513 11.3193 5.85778 11.4321C5.84993 11.5449 5.52338 11.5292 5.3351 11.4321C5.14682 11.335 4.70504 10.9639 4.32701 10.7491C3.58075 10.325 2.77909 10.2205 1.96418 9.70375C0.487843 8.76774 1.43415 5.30366 1.43415 5.2713Z" fill="white"/>
</g>
</svg>
