<svg width="19" height="18" viewBox="0 0 19 18" fill="none" xmlns="http://www.w3.org/2000/svg">
<g id="Sports" clip-path="url(#clip0_1_3017)">
<g id="Group">
<g id="Group_2">
<path id="Vector" d="M9.33331 0C8.28819 0 7.28806 0.187875 6.35431 0.5175C6.34869 0.518625 6.34419 0.520875 6.33969 0.523125C4.64994 1.12163 3.19419 2.20837 2.13781 3.61687C2.13669 3.61912 2.13444 3.62137 2.13219 3.62475C1.00831 5.12663 0.333313 6.984 0.333313 9C0.333313 13.9624 4.37094 18 9.33331 18C14.2957 18 18.3333 13.9624 18.3333 9C18.3333 4.03763 14.2957 0 9.33331 0ZM16.3319 5.40562C16.7538 6.2235 17.0373 7.1235 17.1498 8.07638L16.0203 6.84338L16.3319 5.40562ZM15.4691 4.07587L14.9167 6.62175L13.1516 7.48575L9.90481 5.11987V2.925L12.2189 1.68075C13.5014 2.187 14.6186 3.01725 15.4691 4.07587ZM12.4237 8.3475L11.1862 11.8125H7.48156L6.26206 8.34863L9.34344 6.102L12.4237 8.3475ZM9.33331 1.125C9.78444 1.125 10.2232 1.17112 10.6541 1.24425L9.34456 1.9485L8.03506 1.24088C8.45806 1.17113 8.89006 1.125 9.33331 1.125ZM6.46681 1.67287L8.78094 2.92162V5.11987L5.53531 7.48575L3.76119 6.6195L3.20994 4.059C4.06269 3.00375 5.18319 2.17688 6.46681 1.67287ZM2.34481 5.38538L2.65869 6.84225L1.51681 8.08313C1.62819 7.12012 1.91619 6.21113 2.34481 5.38538ZM2.84094 13.4483C2.10631 12.3795 1.62819 11.1229 1.49656 9.765L3.40119 7.69613L5.13819 8.5455L6.44656 12.2614L5.34294 13.5866L2.84094 13.4483ZM3.83769 14.6306L5.16969 14.7037L5.55669 15.9075C4.92556 15.561 4.34956 15.129 3.83769 14.6306ZM11.3392 16.6061C10.6979 16.776 10.0274 16.875 9.33331 16.875C8.49406 16.875 7.68631 16.74 6.92694 16.4959L6.21931 14.292L7.34656 12.9375H11.3223L12.4304 14.2504L11.3392 16.6061ZM12.8411 16.0403L13.4801 14.6599L15.1046 14.3393C14.4611 15.0345 13.6961 15.6128 12.8411 16.0403ZM13.3091 13.5472L12.2212 12.2591L13.5464 8.5455L15.2756 7.69837L17.1689 9.765C17.0564 10.9361 16.6796 12.0296 16.1081 12.9949L13.3091 13.5472Z" fill="white"/>
</g>
</g>
</g>
<defs>
<clipPath id="clip0_1_3017">
<rect width="18" height="18" fill="white" transform="translate(0.333313)"/>
</clipPath>
</defs>
</svg>
